/* XPM */
static char *_c91a4538e5242e1c43fe542dc34a705x1wkkbgBpMpO2PwI[] = {
/* columns rows colors chars-per-pixel */
"64 64 239 2 ",
"   c None",
".  c #000000",
"X  c #00000B",
"o  c #090300",
"O  c #150901",
"+  c #1A0C01",
"@  c #170502",
"#  c #1C1201",
"$  c #1B140B",
"%  c #000019",
"&  c #270500",
"*  c #360000",
"=  c #241503",
"-  c #251B00",
";  c #2B1B04",
":  c #2C1D09",
">  c #271708",
",  c #341A03",
"<  c #291C11",
"1  c #33210D",
"2  c #392503",
"3  c #362512",
"4  c #2C230A",
"5  c #000E2D",
"6  c #002E31",
"7  c #323028",
"8  c #4E3501",
"9  c #573605",
"0  c #553316",
"q  c #503825",
"w  c #6A1E00",
"e  c #5C4301",
"r  c #654D00",
"t  c #745505",
"y  c #724B1C",
"u  c #714F06",
"i  c #4C473B",
"p  c #51432B",
"a  c #6A4A24",
"s  c #764D26",
"d  c #6F5436",
"f  c #7F633E",
"g  c #2C3D45",
"h  c #002645",
"j  c #00485B",
"k  c #484B4B",
"l  c #5B544F",
"z  c #665C50",
"x  c #726F6A",
"c  c #5A6468",
"v  c #830000",
"b  c #D20000",
"n  c #E93A00",
"m  c #955A00",
"M  c #965B16",
"N  c #8B490C",
"B  c #A95300",
"V  c #896A02",
"C  c #966E08",
"Z  c #B96600",
"A  c #AB661D",
"S  c #B86D1E",
"D  c #A47105",
"F  c #865A33",
"G  c #976424",
"H  c #966C39",
"J  c #A86C28",
"K  c #B87224",
"L  c #A77337",
"P  c #B87833",
"I  c #B06A32",
"U  c #DF7E00",
"Y  c #CB6E01",
"T  c #D47B28",
"R  c #C87D2D",
"E  c #E37A38",
"W  c #E07E00",
"Q  c #936E49",
"!  c #886649",
"~  c #AA7845",
"^  c #A87752",
"/  c #AA7C61",
"(  c #C27353",
")  c #B49003",
"_  c #BC8335",
"`  c #DA9A1B",
"'  c #CC8A13",
"]  c #E38500",
"[  c #EC9B00",
"{  c #E99403",
"}  c #E88916",
"|  c #EC9E19",
" . c #D3AB0C",
".. c #E5B617",
"X. c #F4B91E",
"o. c #EBA31B",
"O. c #D88B24",
"+. c #C58A3E",
"@. c #DC953A",
"#. c #D38331",
"$. c #EB982E",
"%. c #F19A2E",
"&. c #EE9435",
"*. c #E59938",
"=. c #E88F2F",
"-. c #EFA72B",
";. c #F2A82A",
":. c #F6B32C",
">. c #FABE2C",
",. c #F5B924",
"<. c #F1A433",
"1. c #F4AC32",
"2. c #FAAB3D",
"3. c #F6B433",
"4. c #F9B830",
"5. c #EFB324",
"6. c #F4C81A",
"7. c #FDDC1B",
"8. c #F9D419",
"9. c #EAC52C",
"0. c #FCCD25",
"q. c #FCC42B",
"w. c #FCC928",
"e. c #F8C727",
"r. c #FDD322",
"t. c #F7D220",
"y. c #F9DD34",
"u. c #F6D537",
"i. c #EBC934",
"p. c #FDE433",
"a. c #9D805B",
"s. c #B98749",
"d. c #AF8451",
"f. c #918169",
"g. c #AB9272",
"h. c #B99677",
"j. c #AD906D",
"k. c #C88C45",
"l. c #DB9A4A",
"z. c #D59953",
"x. c #CF8D4F",
"c. c #E69C45",
"v. c #E49E51",
"b. c #D8A25D",
"n. c #FCAA44",
"m. c #FAAC4B",
"M. c #FFB34D",
"N. c #FFB647",
"B. c #EBA85A",
"V. c #FEB454",
"C. c #FFBB5C",
"Z. c #FBB35C",
"A. c #EFA854",
"S. c #C3916A",
"D. c #D6A572",
"F. c #EBAB69",
"G. c #FEBA63",
"H. c #FDBB6A",
"J. c #FCB766",
"K. c #E2B57F",
"L. c #FCBD74",
"P. c #F6BA78",
"I. c #E9B06A",
"U. c #F8DC4C",
"Y. c #F7DD52",
"T. c #EBCE4A",
"R. c #FCE952",
"E. c #FBE84E",
"W. c #FFC375",
"Q. c #FEC47C",
"!. c #FACE67",
"~. c #FBEA6E",
"^. c #F9E975",
"/. c #7F8D93",
"(. c #939799",
"). c #B49E85",
"_. c #B39A88",
"`. c #A69D95",
"'. c #A99B8E",
"]. c #BBA58E",
"[. c #AEA59B",
"{. c #989EA1",
"}. c #A7AAAC",
"|. c #B6B8BA",
" X c #B8AEA1",
".X c #C8A785",
"XX c #D0B495",
"oX c #E8B68A",
"OX c #F2BD8B",
"+X c #F3BB83",
"@X c #E0BD90",
"#X c #CDBBA6",
"$X c #C9BBB1",
"%X c #DEC19B",
"&X c #FEC681",
"*X c #FFCA85",
"=X c #FFCC8C",
"-X c #F5C18C",
";X c #FECE93",
":X c #F7C998",
">X c #FFD295",
",X c #FFD39C",
"<X c #FFD99C",
"1X c #F5CA94",
"2X c #FBEF91",
"3X c #FED5A3",
"4X c #FFDAA5",
"5X c #FEDAAB",
"6X c #F9D4A9",
"7X c #FEDCB3",
"8X c #FEDFB9",
"9X c #FAD5B8",
"0X c #F1CDAF",
"qX c #FFE2BC",
"wX c #FFE4B8",
"eX c #BABEC0",
"rX c #C6C7C7",
"tX c #D6CDC7",
"yX c #DBD6D5",
"uX c #D0D0D1",
"iX c #E4D5C5",
"pX c #F5DCC7",
"aX c #FFE4C4",
"sX c #FEE6CA",
"dX c #FFE9CD",
"fX c #FFE9C5",
"gX c #FFECD4",
"hX c #FFEEDA",
"jX c #FFF1DD",
"kX c #E4E0DD",
"lX c #E9E7E5",
"zX c #FFF2E3",
"xX c #FEF5EC",
"cX c #FFF9ED",
"vX c #F9F4EB",
"bX c #FFFBF3",
"nX c #FEFEFD",
"mX c #F5F7F7",
"MX c #EEEEEE",
/* pixels */
"                                                                                                                                ",
"                                                        4 . % % % % . 4                                                         ",
"                                                      - X . r V V r . X -                                                       ",
"                                        4 . . . . - 4 X t  .T.~.~.T. .t X - - . . . . - #                                       ",
"                                    # . . . 9 r 2 . X V i.^.2X2X2X2X^.i.V . . @ e e = . . #                                     ",
"                                  # . . )  .9.9.9.) C 9.~.^.^.~.^.^.^.~.i.V ) ..9.9...) 8 . #                                   ",
"                                # . 2  .9.U.Y.Y.E.u.t.U.R.E.R.R.E.R.E.E.Y.6.u.U.Y.Y.T.u...r . #                                 ",
"                                . . ' 0.i.u.y.y.y.y.p.p.p.p.p.p.p.p.p.p.p.p.y.y.y.p.u.u.t...8 . #                               ",
"                              = . C 6.6.8.8.7.7.7.7.7.7.7.7.7.7.7.7.7.7.7.7.7.7.7.7.7.8.6.6.' . #                               ",
"                              - . ` 6.6.8.7.7.7.7.7.7.7.7.7.7.7.7.7.7.7.7.7.7.7.7.7.7.8.6.6...e . ;                             ",
"                          + o . 8 X.6.8.8.8.r.r.r.r.r.r.r.r.r.r.r.r.r.r.r.r.r.r.r.r.t.t.8.6.X.V . # +                           ",
"                        # . , C ' X.e.0.r.r.r.r.r.r.r.r.r.r.0.r.r.r.r.r.r.r.r.0.r.r.r.r.0.0.X.` C 2 . #                         ",
"                      # . u ` X.,.e.e.r.0.w.0.0.r.0.0.0.0.0.0.0.r.0.0.0.0.0.0.0.0.0.0.0.0.w.e.X.5.` u . +                       ",
"                    + . u -.X.5.,.q.e.e.w.w.w.w.w.w.w.w.w.w.w.w.w.0.w.q.w.w.w.w.w.w.w.w.w.w.e.>.5.X.-.u . #                     ",
"                    . + O.5.5.,.q.q.q.q.q.q.q.q.q.q.w.q.q.q.q.q.q.q.q.q.q.q.q.q.q.q.q.q.q.q.q.q.>.,.5.` O .                     ",
"                  ; . M o.;.:.>.>.>.q.>.>.q.>.>.q.>.q.q.>.q.>.q.q.q.>.q.q.>.q.>.>.>.q.>.q.q.q.>.>.,.o.%.M . ;                   ",
"                  = . ' -.-.:.>.4.>.>.:.:.:.3.3.3.3.3.3.3.3.3.3.3.3.3.3.3.3.3.3.3.3.:.:.3.4.>.q.>.:.;.;.R . =                   ",
"                  . . O.-.-.3.:.4.1.;.| | { [ { [ [ [ [ [ [ [ [ [ [ [ [ [ [ [ { [ [ { | o.1.3.3.3.:.1.;.O.. .                   ",
"                  . @ O.%.<.1.:.1.<.{ +XsXpX6X0X:X:X-XOXOXOXOXOXOXOXOXOX1XOX:X:X0X6XaXsX+X[ 1.1.3.1.<.;.O.@ .                   ",
"                  O . T -.<.<.<.<.{ F.hXbXbXbXbXbXbXbXcXbXbXxXcXbXbXcXxXbXbXbXbXbXbXnXbXgXF.{ 1.<.<.;.%.O.. +                   ",
"                  = . S %.$.<.<.$.*.8XzXzXzXxXxXxXxXxXxXxXxXxXxXvXxXxXbXxXxXxXxXxXzXzXzXzX9X&.$.<.<.%.%.A . >                   ",
"                  = . 9 =.$.$.&.] +XgXhXhXhXhXjXhXzXzXzXzXzXzXzXzXzXzXzXzXzXzXhXzXhXhXhXhXgXP.] %.%.$.=.9 . #                   ",
"                    + . A $.=.&.} 6XdXdXgXgXgXhXhXhXhXjXjXjXjXjXzXhXhXhXhXhXhXhXgXgXgXgXsXsX6X} &.=.%.A o +                     ",
"                      . . S &.} v.8XaXaXaXsXsXgXgXgXgXgXhXhXhXjXhXhXhXhXgXgXgXgXgXgXsXsXaXaX7Xv.} *.S . .                       ",
"                      + . M &.] F.qXqXaXaXaXsXdXdXgXgXgXgXhXgXgXhXgXhXgXgXdXdXdXsXsXaXaXaXqXqXF.] &.M . =                       ",
"                      o . S &.] +X8X8X8XaXaXaXsXdXdXsXgXgXgXgXhXhXgXgXgXgXgXdXdXsXsXaXaXqX8X8XP.W &.S . .                       ",
"                      o . S &.W +X8X8X8XqXaXaXaXsXsXdXgXgXgXgXgXgXgXgXgXgXgXdXsXsXaXaXqX8X8X8X+XW &.S . o                       ",
"                      O . A &.W +X7X7X8XqXqXaXfXsXsXsXgXgXgXgXgXgXgXgXgXsXdXdXsXaXaXqX8X8X7X7X+XW &.A . @                       ",
"                      = . N &.W =XwXwXqXfXfXdXdXgXgXgXdXgXgXgXhXgXjXgXgXgXgXgXgXgXfXfXfXaXwXqXOXW =.N . =                       ",
"                        . , T } D.XX.X).).).).].#X0XfXjXjXgXhXhXjXgXgXjXhXsX0X#X].).].).)..XXXD.} T , .                         ",
"                        = X M } x.. . . . . . . . . k `.iXjXjXjXgXjXzXiX`.k . . . . . . . . . x.} M X =                         ",
"                        < . i x.P.%Xg.~ K k.z.z.z.b.s.m d  XgXjXjXhX Xd m k.z.z.z.l.k.P L g.@XL.x.i . <                         ",
"                        . 3 6 s F.wX,XOX9X@X+.T E #.v.Z.*.D.iXjXjXtXD.c.Z.B.@.E T T oX0XoX3X8XF.a 6 3 .                         ",
"                      < . a.K.. l g.* X j h o . o . . X w D.gXjXjXgXS.w . . . . . . 5 j . * g.d X oX/ . <                       ",
"                      < . d.>XI.* . '.uX/ Z f (.}.x Z I /.. $XcXcX$X. (.^ Z x }.{.l Z J uX'.. , I.=Xd.. <                       ",
"                      # . d.W.G.0 D zXnXx.Y l c MXMX~ U iX{.q zXjXp {.MXW R c `.nX|.B O.MXvXD 0 !.W.d.. #                       ",
"                      = . _ W.Z.O _ hXMX( K 5 . eXuX! Y iXuX. k k . uXlXY ^ . l kX(.m Y yXjX_ $ Z.H.~ . =                       ",
"                      : . L C.A.: s.pXnXh.Z ! . . . ~ B MXuX. [. X. rXnXI R z X . q P ~ mXaXs.1 m.C.L . :                       ",
"                        . F M.m.@ h.;XnXlXm D Q Q ~ B #XbXXX. zXcX7 ].bXtXB I Q Q L N tXnX,Xh.& m.V.F .                         ",
"                        . 0 n.M.* g.>X9XnXkX/ G J Q $XmXhXd.g hXgXg d.jXnXtX^ G J ^ tXnX9X>Xg.* M.n.9 .                         ",
"                        . . *.N.J o @X<XsXnXnXmXvXnXnXhXoX. '.jXjX'.. oXjXnXnXvXmXnXnXsX<X@X. J N.*.. .                         ",
"                        ; . J 2.Z.F . f.d.h.|.eXeX|._.H . x sXgXgXsXx . H _.|.eXeX|.h.d.f.. f V.2.J . :                         ",
"                          . 1 *.V.Q.h.d i p 8 8 8 8 p z ].sXdXdXdXgXaX].z p 8 8 8 8 q k d h.&XV.$.1 .                           ",
"                          = . 9 G P.<X<X,X5X7X7X8XqXaX8XfXaXaXdXfXaXfXfX8XqXqX8X8X7X5X,X<X<XP.G 9 . =                           ",
"                            > o . I.*X,X3X4X5X5X7X7X9X<X8XaXaXaXaXaXaXqX,X8X8X7X5X5X4X3X,X=XI.. . >                             ",
"                              1 . b.=X;X;X,X3X3X5X5X7XP.F.,XaXaXqXaX>XF.P.5X5X5X4X3X,X;X;X*Xb.. 3                               ",
"                              4 . s.&X;X;X,X3X3X5X5X7X5XS.T ,X8XqX,XT S.5X7X5X5X3X,X,X;X;X&Xs.. 4                               ",
"                              1 . H W.=X=X;X,X,X3X4X5X6XwX1XZ.J.H.Z.%XwX5X5X4X3X,X,X;X;X=XW.H . 1                               ",
"                                . a H.*X=X;X;X,X,X3X3X6X3X7X3XP.L.3XwX6X3X3X3X<X,X,X=X=X*XH.a .                                 ",
"                                . . B.Q.*X*X;X;X>X,X<X4X5X6X5X4X4X5X4X5X4X<X,X,X=X=X=X*XQ.B.. .                                 ",
"                                # . k.W.&X*X=X*X;X*XB.v.c.@.@.c.c.@.@.c.l.B.*X>X=X=X*X&XW.k.. #                                 ",
"                                > . s C.W.Q.&X=X;XW.J (.tXtXyXyXiXyXtXtX}.~ W.1X*X+X&XW.!.s . =                                 ",
"                                  O . k.G.W.Q.&X=X*Xs.}.lXmXmXnXnXmXmXMXeXx.=X*X&X&XL.G.k.. O                                   ",
"                                  : . . l.G.W.Q.Q.*XP.s q F I E E ~ F q s P.*XQ.&XL.!.l.. . >                                   ",
"                                    : . 3 c.C.H.W.W.=XoXa v b n n b v s oX*XW.W.L.G.c.3 o :                                     ",
"                                      4 . 1 l.C.H.P.W.=X:X.XS.( ( ( .X6X;XL.W.H.C.c.: . :                                       ",
"                                        4 . . +.V.G.H.W.&X4X6X6X9X7X<X*XH.H.G.V.+.. . :                                         ",
"                                          : . . L M.V.H.H.H.Q.Q.*XW.H.H.J.C.M.L . . :                                           ",
"                                            > O . y c.N.C.G.J.G.J.J.J.C.M.c.y . O >                                             ",
"                                                > o . P n.M.V.Z.Z.V.M.n._ . . ;                                                 ",
"                                                  ; . . y @.n.n.n.2.@.s . . ;                                                   ",
"                                                      : . . y G G y . . :                                                       ",
"                                                        2 o . . . . o 2                                                         ",
"                                                                                                                                "
};
