/* XPM */
static char *aea6e36ae4b34c24c9a6eb5a1b1b7616n9DBufwhlNVPkIJN[] = {
/* columns rows colors chars-per-pixel */
"64 64 193 2 ",
"   c None",
".  c black",
"X  c #020202",
"o  c #040404",
"O  c gray2",
"+  c #090909",
"@  c gray4",
"#  c gray6",
"$  c #101010",
"%  c #131313",
"&  c #191919",
"*  c gray10",
"=  c #1E1E1E",
"-  c gray12",
";  c gray13",
":  c #252525",
">  c #282828",
",  c #2A2A2A",
"<  c gray17",
"1  c gray18",
"2  c #2F2F2F",
"3  c #313131",
"4  c #323232",
"5  c gray20",
"6  c #343434",
"7  c #353535",
"8  c gray22",
"9  c #3A3A3A",
"0  c gray23",
"q  c gray24",
"w  c #3E3E3E",
"e  c gray25",
"r  c #414141",
"t  c gray26",
"y  c #434343",
"u  c #444444",
"i  c gray27",
"p  c #484848",
"a  c gray29",
"s  c #4B4B4B",
"d  c #4C4C4C",
"f  c gray32",
"g  c #535353",
"h  c gray33",
"j  c #555555",
"k  c gray34",
"l  c #585858",
"z  c gray35",
"x  c #5A5A5A",
"c  c #5B5B5B",
"v  c #5D5D5D",
"b  c gray37",
"n  c #606060",
"m  c gray38",
"M  c #626262",
"N  c gray39",
"B  c #646464",
"V  c #656565",
"C  c gray40",
"Z  c #676767",
"A  c #686868",
"S  c DimGray",
"D  c #6A6A6A",
"F  c gray42",
"G  c #6C6C6C",
"H  c #6D6D6D",
"J  c gray43",
"K  c gray44",
"L  c #717171",
"P  c #727272",
"I  c gray45",
"U  c #747474",
"Y  c gray46",
"T  c gray47",
"R  c gray48",
"E  c #7B7B7B",
"W  c #7C7C7C",
"Q  c gray49",
"!  c #7E7E7E",
"~  c gray50",
"^  c #808080",
"/  c #818181",
"(  c gray51",
")  c #838383",
"_  c #848484",
"`  c gray52",
"'  c #868686",
"]  c gray53",
"[  c #888888",
"{  c #898989",
"}  c gray54",
"|  c #8B8B8B",
" . c gray55",
".. c #8D8D8D",
"X. c #8E8E8E",
"o. c gray56",
"O. c #909090",
"+. c gray57",
"@. c #929292",
"#. c gray58",
"$. c gray61",
"%. c gray62",
"&. c #9F9F9F",
"*. c #A0A0A0",
"=. c gray63",
"-. c #A2A2A2",
";. c gray64",
":. c #A4A4A4",
">. c #A5A5A5",
",. c gray65",
"<. c #A7A7A7",
"1. c gray66",
"2. c #A9A9A9",
"3. c #AAAAAA",
"4. c gray67",
"5. c #ACACAC",
"6. c gray68",
"7. c #AEAEAE",
"8. c #AFAFAF",
"9. c gray69",
"0. c #B1B1B1",
"q. c #B2B2B2",
"w. c gray70",
"e. c #B4B4B4",
"r. c #B6B6B6",
"t. c #B7B7B7",
"y. c gray72",
"u. c #B9B9B9",
"i. c gray73",
"p. c #BBBBBB",
"a. c #BCBCBC",
"s. c gray74",
"d. c gray75",
"f. c #C0C0C0",
"g. c #C1C1C1",
"h. c gray76",
"j. c #C3C3C3",
"k. c gray77",
"l. c #C5C5C5",
"z. c #C6C6C6",
"x. c #C8C8C8",
"c. c #CACACA",
"v. c gray80",
"b. c #CDCDCD",
"n. c #CECECE",
"m. c gray81",
"M. c #D0D0D0",
"N. c gray82",
"B. c #D2D2D2",
"V. c LightGray",
"C. c gray83",
"Z. c #D5D5D5",
"A. c gray84",
"S. c #D7D7D7",
"D. c #D8D8D8",
"F. c gray85",
"G. c #DADADA",
"H. c gray86",
"J. c gainsboro",
"K. c #DDDDDD",
"L. c gray87",
"P. c #DFDFDF",
"I. c gray88",
"U. c #E1E1E1",
"Y. c #E2E2E2",
"T. c gray89",
"R. c gray90",
"E. c #E6E6E6",
"W. c #E7E7E7",
"Q. c gray91",
"!. c #E9E9E9",
"~. c #EAEAEA",
"^. c gray92",
"/. c #ECECEC",
"(. c gray93",
"). c #EEEEEE",
"_. c #EFEFEF",
"`. c gray94",
"'. c #F1F1F1",
"]. c gray95",
"[. c #F3F3F3",
"{. c #F4F4F4",
"}. c gray96",
"|. c #F6F6F6",
" X c gray97",
".X c #F8F8F8",
"XX c #F9F9F9",
"oX c gray98",
"OX c #FBFBFB",
"+X c gray99",
"@X c #FDFDFD",
"#X c #FEFEFE",
"$X c white",
/* pixels */
"                                                                                                                                ",
"                                                                                                                                ",
"                                                                                                                                ",
"                                                                                                                                ",
"                                                                                                                                ",
"                                                                                                                                ",
"                                                                                                                                ",
"                                                                                                                                ",
"                                                                                                                                ",
"                                                                                                                                ",
"                                                                                                                                ",
"                                                                                                                                ",
"                                                                                                                                ",
"                                                                                                                                ",
"                                                                                                                                ",
"                                                                                                                                ",
"                                                                                                                                ",
"                                                                                                                                ",
"                                                                                                                                ",
"                                                                                                                                ",
"                                                                                                                                ",
"                                                                                                            . . . .             ",
". p K C C C C t . .       . c K C C A c . .               . C J <     . j Y t .             $ A A *     . . ! 3.8.o.+ .         ",
". 8.#X#X#X#X#X|.b.j .     . M.#X#X#X#X.XR.+..             K [.#X$..   . ;.#Xk..             Y #XT..   . v K.#X#X#X#XR.o..       ",
". 9.#X.X|.|..X#X#XK.9     . Z.#X.X[.|.#X#X#X+..         . 8.#X#Xc..     M #X)..           . 9.#Xf.. . j ).#X#XM.c.).#X#Xo..     ",
". 9.#X3.. p O ! ).#X<..   . Z.#X( . < j Z.#XT..         . G.#X.X).9     . T.#XJ .         . K.#X! . . Z.#XK.t . . . f.#X!.9     ",
". 9.#X3..     . ;.#Xb..   . G.#X! .   . p #X#Xj         4 #XK.f.#X| .   . a.#X8..         d .X[.p . _ #X.Xw .       . K.#X9..   ",
". 9.#X8..       _ #XG..   . Z.#X(       . R.#XK       . | #X9.! #Xa..   . ( #XG..       . #.#Xb.. . k.#Xy..         . | #XR..   ",
". 9.#X8..     . +.#XM..   . G.#X( .     . T.#XY       . k.#X_ . #XT..     : .X.Xw       . c.#X;.. . !.#XK             4 |.#XC   ",
". 9.#X;.. . . . G.#X;..   . Z.#X( .     $ |.#Xc       . !.#Xf . T.#Xc     . M.#X+..     . !.#XA . v #X.X6             . K.#Xo.. ",
". e.#XK.f.b.c.!.#Xc.#     . Z.#XJ . . . e.#XR..       C #XK.. . 9.#X;..   . <.#Xk..     K #X!.- . K #X!..             . b.#X<.. ",
". 9.#X#X#X#X#X#X[.K .     . Z.#XZ.c.b.G.#X.Xo..     . 3.#Xa.. . E #XM..     v #X)..   . 9.#Xf.. . E #XT..             . k.#X9.. ",
". 9.#Xb.;.9.8.k.#X#X( .   . G.#X#X#X#X#X#X$..       . G.#XE     . |.|.;     . R.#XJ . . K.#X|     ! #XT..             . k.#X9.. ",
". 9.#X&.. . . . #.#XT..   . Z.#Xa.;.9.Z.#XG.*       9 |.).. . $ . k.#X! .   . a.#X3.. j |.[.6     K #XR..             . b.#X<.. ",
". 9.#X9..       . !.#XM   . Z.#XC . . . Z.#X8..   . +.#X[.k.M.Z.k.T.#Xy..   . _ #XZ.. o.#XM..     f #X|.6             . G.#Xo.. ",
". e.#X8..       . K.#X( . . Z.#X|     . C #X[.O   . k.#X#X#X#X#X#X#X#XT..     1 |.|.. y.#X<..     . ).#XK             6 |.#XC   ",
". 9.#X9..       . T.#X( . . Z.#X( .     . G.#X+.. 6 R.#X9.<.9.8.8.<.).#Xc     . M.#X( K.#XM       . b.#Xe..         . | #XR..   ",
". 9.#X3..     . f .X#XC   . Z.#X( .     . &.#XM.. J #XR.. . . . . . y.#X;..   . <.#XZ..X!..       . _ #X.Xt .       . K.#Xe..   ",
". 9.#X8.. j w J M.#XK..   . Z.#X( .       w .X|.. +.#Xk..         . | #Xb..     C .X#X#Xf..         . Z.#XG.d . . . a.#X).9     ",
". 9.#X|.[.|.|.#X#X#X( .   . G.#X(         . c.#X;.k.#X+..           6 .X.X;     . K.#X#X+..         . f [.#X[.M.b.!.#X#X| .     ",
". 3.#X.X#X#X#X.XZ.! .     . b.#X! .       . _ #XT.!.|.f             . M.#X! .   . 9.#XT.u             . M Z.#X#X#X#X!.| .       ",
". u J C M M M d . .       . j J 1           + M J J c .             . d K u .     6 J c .               . . ! <.3.o.< .         ",
"                                                                                                            . . . .             ",
"                                                                                                                                ",
"                                                                                                                                ",
"                                                                                                                                ",
"                                                                                                                                ",
"                                                                                                                                ",
"                                                                                                                                ",
"                                                                                                                                ",
"                                                                                                                                ",
"                                                                                                                                ",
"                                                                                                                                ",
"                                                                                                                                ",
"                                                                                                                                ",
"                                                                                                                                ",
"                                                                                                                                ",
"                                                                                                                                ",
"                                                                                                                                ",
"                                                                                                                                ",
"                                                                                                                                ",
"                                                                                                                                ",
"                                                                                                                                ",
"                                                                                                                                "
};
