/* XPM */
static char *_91d010bca8b4760b29d9c23004b6e53Ovlo9BbmLVcWVLGt[] = {
/* columns rows colors chars-per-pixel */
"64 64 195 2 ",
"   c None",
".  c #2F2F2F",
"X  c #333333",
"o  c #3B3B3B",
"O  c #6E0E0E",
"+  c #750E0E",
"@  c #7B0E0E",
"#  c #731D1D",
"$  c #7A1919",
"%  c #7D1616",
"&  c #6C2323",
"*  c #6B2A2A",
"=  c #662525",
"-  c #7B2626",
";  c #712B2B",
":  c #762222",
">  c #6E3232",
",  c #743232",
"<  c #7E3232",
"1  c #743B3B",
"2  c #434343",
"3  c #4C4C4C",
"4  c #535353",
"5  c #5C5C5C",
"6  c #774343",
"7  c #794B4B",
"8  c #7B5353",
"9  c #7E5A5A",
"0  c #636363",
"q  c #6D6D6D",
"w  c #7E6262",
"e  c #747474",
"r  c #7C7C7C",
"t  c #777778",
"y  c #8F0F0F",
"u  c #950F0F",
"i  c #821515",
"p  c #8C1515",
"a  c #8C1C1C",
"s  c #A40F0F",
"d  c #BC0F0F",
"f  c #A31212",
"g  c #A71919",
"h  c #AD1D1D",
"j  c #A81111",
"k  c #B31010",
"l  c #BB1111",
"z  c #B21B1B",
"x  c #8B2525",
"c  c #862C2C",
"v  c #873131",
"b  c #893434",
"n  c #863C3C",
"m  c #AF2525",
"M  c #AA2E2E",
"N  c #B32222",
"B  c #B32E2E",
"V  c #BD2929",
"C  c #B0302F",
"Z  c #AB3333",
"A  c #A53C3C",
"S  c #A93939",
"D  c #B33D3D",
"F  c #B33333",
"G  c #C40F0F",
"H  c #CB0E0E",
"J  c #D40E0E",
"K  c #DB0D0D",
"L  c #C41313",
"P  c #CB1414",
"I  c #C41A1A",
"U  c #CA1A1A",
"Y  c #D41616",
"T  c #DB1414",
"R  c #D31919",
"E  c #DE1A1A",
"W  c #E40D0D",
"Q  c #EE0C0C",
"!  c #F20E0E",
"~  c #E41313",
"^  c #EC1212",
"/  c #E41E1E",
"(  c #F51212",
")  c #C42222",
"_  c #CD2525",
"`  c #C32D2D",
"'  c #CE2B2B",
"]  c #D42323",
"[  c #DC2121",
"{  c #D62C2C",
"}  c #D92F2F",
"|  c #CC3A3A",
" . c #C83B3B",
".. c #D63333",
"X. c #D93636",
"o. c #D93B3B",
"O. c #D33B3B",
"+. c #E02424",
"@. c #E12B2B",
"#. c #E23131",
"$. c #E33B3B",
"%. c #864242",
"&. c #884141",
"*. c #8C4B4B",
"=. c #9E4C4C",
"-. c #905454",
";. c #9B5C5C",
":. c #A84848",
">. c #B44C4C",
",. c #B04444",
"<. c #A55454",
"1. c #A85F5F",
"2. c #B35252",
"3. c #B75C5C",
"4. c #816464",
"5. c #856D6D",
"6. c #996767",
"7. c #8E7979",
"8. c #947676",
"9. c #927979",
"0. c #9B7979",
"q. c #9B7575",
"w. c #A36262",
"e. c #AB6666",
"r. c #A56B6B",
"t. c #B46C6C",
"y. c #B16363",
"u. c #AC7776",
"i. c #A47A7A",
"p. c #AF7D7D",
"a. c #A17474",
"s. c #B37C7C",
"d. c #B27373",
"f. c #C34949",
"g. c #C94343",
"h. c #DA4444",
"j. c #DC4A4A",
"k. c #C85555",
"l. c #E44444",
"z. c #E54C4C",
"x. c #E75151",
"c. c #C16262",
"v. c #7F7F80",
"b. c #838383",
"n. c #8A8585",
"m. c #8C8C8C",
"M. c #938C8C",
"N. c #9F8989",
"B. c #908F90",
"V. c #8F9090",
"C. c #949393",
"Z. c #9A9393",
"A. c #9B9B9B",
"S. c #AC8686",
"D. c #A78686",
"F. c #B28E8E",
"G. c #B38585",
"H. c #A49595",
"J. c #B49393",
"K. c #BC9E9E",
"L. c #B89696",
"P. c #A4A4A4",
"I. c #ACACAC",
"U. c #A9A7A8",
"Y. c #B3ADAD",
"T. c #BFA4A4",
"R. c #B4B3B3",
"E. c #BAB5B5",
"W. c #BCBBBB",
"Q. c #C5ADAD",
"!. c #C4A7A7",
"~. c #CCBABA",
"^. c #C9B4B4",
"/. c #C3C2C2",
"(. c #CDCDCD",
"). c #CCCCCC",
"_. c #C7C8C7",
"`. c #D5C9C9",
"'. c #D5C7C7",
"]. c #D6D5D6",
"[. c #D4D4D4",
"{. c #DCD7D7",
"}. c #DADADA",
"|. c #DDDDDD",
" X c #DCDCDC",
".X c #E0E0DF",
"XX c #E2E2E2",
"oX c #E5E5E5",
"OX c #E5E5E5",
"+X c #EAEAEA",
"@X c #EEEEEE",
"#X c #ECECEC",
"$X c #E8E6E6",
"%X c #F2F2F2",
"&X c #F4F4F4",
/* pixels */
"                                                                                                                                ",
"                                                    o o X . o X o o X X o o                                                     ",
"                                            o X o 3 5 e m.A.U.I.I.U.A.m.e 5 3 o X o                                             ",
"                                        X o 5 v.U._.|.+X%X&X&X&X%X%X%X#X#X|./.I.v.5 o X                                         ",
"                                    X 3 e I.[.+X%X%XXX[._./.W.W.W.W./._.]..X#X&X#X].I.e 3 X                                     ",
"                                X 2 7.W.XX%XoX).R.D.r.:.Z N k k k k N C ,.e.S.E.(.XX%XXXW.v.3 X                                 ",
"                            o o e W.oX%X].R.D.:.h k k k k k d k l l k k k k k z ,.p.E.].#XoXW.e 2 o                             ",
"                          X 4 P. X@X].U.r.M k k k l l P R Y E E E R E Y P L l k k k z y.Y.].#X|.P.4 X                           ",
"                        o q /.+XoXR.a.m k k l l P U E E E E E E E E ~ E E E R P L k k k z t.W..X+X/.q o                         ",
"                      o b.[.#X(.H.A k k k d P P E E E ~ @.$.+./ E E E $.#.~ E R R P L d k k M J.(.+X].b.2                       ",
"                    2 V. X#XW.a.z k k l L P R E E X.l.x.x.x.{ ~ ~ E E l.z.z.#.+.E P P L l l k k t./.+X XC.2                     ",
"                  o V. X+XR.w.k k k l L R { $.l./ z.x.z.x.z./ E E E E $.z.z.z.l.#.E R R P l l k k >.E.oX XC.o                   ",
"                X b.].oXI.<.k k l z { o.j.z.x.$.@.z.l.$.@./ E E E E ~ E { $.l.l.$.[ ..] R P L l k k D E.XX{.b.o                 ",
"              X q (.oXR.<.k k k l O.j.j.j.z.z.+.+.+.E ~ E E E E E E E E / ~ +.$.$.+.$.h.o..._ I l k k ,.W.XX(.q X               ",
"            X 4 W.OXW.6.k k k l P h.j.h.X.[ / E E E E E E E E E / E E E E E R R [ R o.O.o.o.o.' L k k k 2./.XXW.4 o             ",
"            o A. X).0.k k k l L ] ..a % i i i $ $ $ $ $ # # # # & & & & & * * * * * * # { ..o...L L k k k t.).XXA.o             ",
"          X q (. XZ.m k k k L P R P = q b.b.m.m.m.m.m.V.C.C.C.C.C.C.C.A.A.A.A.A.A.A.A., U R R R R L G k k k L.].[.q X           ",
"          3 I.|.I.:.k k k L P R U P > A._.[.(.[.{.{.].].].]. X]. X X X X X|..XXX|. X[.%.P R R R R P L d k k C W. XY.3           ",
"        X e [.(.8.k k k k L R R R ) 1 R.+X%X%X%X&X&X&X&X%X%X%X%X%X%X&X&X%X%X&X&X&X&XoX*._ ] R R R R L L k k k t.(.[.e X         ",
"        2 I. XU.Z k k k L P R ..o.` 6 W.+X&X&X&X&X&X&X&X&X&X&X&X&X%X&X&X&X&X&X&X&X&XOX*.' { { { R R P L l k k z E. XI.2         ",
"      X q ).).q.k k k l L R { ..X.V 7 W.#X&X&X&X&X&X&X&X&X&X&X&X&X&X&X&X&X&X&X&X&X&X+X*.' { ] { ] U R L L k k k t.).(.q X       ",
"      o A.[.I.S k k j L P R { ....m 7 W.#X&X&X&X&X&X&X&X&X&X&X&X&X&X&X&X&X&X&X&X&X&X+X-.) ] ] { ] R R P L d k k z W.].A.o       ",
"    X 4 W.[.M.k k k l L P R { { } N 8 /.%X&X&X&X&X&X&X&X&X&X&X&X&X&X&X&X&X&X&X&X&X&X+X-.I { ] ] ] R R P L L k k l G.(.W.4 o     ",
"    X e _.W.;.k k k l P R R { { { m 9 /.@X&X&X&X&X&X&X&X&X&X&X&X&X&X&X&X&X&X&X&X&X&X+X-.I ] ] R ] R R R P L k k l ,./.).e X     ",
"    X C.`.I.Z k k k L P R ] { { ] m 9 /.#X&X&X&X&X&X&X&X&X&X&X&X&X&X%X&X%X%X%X%X%X%XoX-.I ] ] ] R R P Y P L l k k z E.`.C.o     ",
"    2 I.(.C.g k k k L P R { ] ] ] g 9 ).%X&X&X&X&X&X&X&X$X`.'.~.~.~.Q.Q.K.K.L.J.J.S.i.< U R R [ ] R R R R L l k k k J.(.I.2     ",
"  X 4 W._.8.k k k k L R R ] ] ] ] g w ).%X&X&X&X&X&X&X&XS.O O O O O O O O O O O O O O + U R R R R R R R R L L k k k t./.W.4 o   ",
"  X 0 /.W.;.k k k d L R R ] ] ] ] g w ).%X&X&X&X&X&X&X%X{.Y.A.Z.Z.Z.C.Z.A.A.C.A.C.C.V.7 z R R R R R R R R L L k k k >./.W.q o   ",
"  X e /.R.:.k k k l L R R R R R R g 4.(.%X&X&X&X&X&X&X&X#X X(.).).).(.(.(.(.(.(.(.(.).6.k Y R R U R R R R L L d k k F W./.t X   ",
"  X b./.I.A k k k l P R R R R R R f 5.(.@X&X&X&X&X&X&X&X&X%X%X%X#X%X%X&X%X%X%X%X%X%X+Xi.k Y R R R R R R R P L l k k N W./.b.X   ",
"  X m./.U.A k k k l P R R R R Y R f 5.(.%X&X&X&X&X&X&X&X&X&X&X&X&X&X&X&X&X&X&X&X&X&X%XS.k E Y Y Y R R R R L L l k k k W./.m.X   ",
"  X m.W.U.M k k k L P R R R R Y Y s 5.(.%X&X&X&X&X&X&X&X&X&X&X&X&X&X&X&X&X&X&X&X&X&X%XS.k Y T Y R R R Y R U L l k k k W.W.m.o   ",
"  X m.W.P.M k k k L P R R R R Y T f 5.[.&X&X&X&X&X&X&X&X&X&X&X&X&X&X&X&X&X&X&X&X&X&X#XJ.k T T E Y R R R R P L l k k k E.W.m.X   ",
"  X b.W.P.M k k k l P R Y E Y E Y j 5.(.%X&X&X&X&X&X&X&X&X&X&X&X&X&X&X&X&X&X&X&X%X%X%XJ.k ~ ~ Y T Y R Y R P L d k k z E.W.n.o   ",
"  X r R.U.=.k k k l P Y Y Y T T ~ j 5.(.%X&X&X&X&X&X&X&X&X#X+X+X+X$XoXoXOX{.{.`.`.'.~.0.k ~ ~ T T Y Y E R P L l k k N R.E.r X   ",
"  . q I.U.=.k k k l P E Y Y Y ~ ~ k 4.(.%X&X&X&X&X&X&X&X!.b x x a a i @ + + + % @ + + O l ^ ~ ~ T T T Y R P L k k k D R.R.q X   ",
"  o 5 I.I.;.k k k l P Y Y T ~ ~ ~ k w ).%X%X&X&X&X&X&X&X!.- : ; ; , 1 1 6 7 7 8 9 w 4.w y ^ ^ ~ ~ ~ Y T R P L d k k 2.R.I.5 o   ",
"  X 3 P.R.9.k k k d P Y E T ~ ~ ^ l w ).%X&X&X&X&X&X&X&X.XE.A.A.A.A.P.U.U.Y.R.R.R.W.W.I.p ( ^ ^ ~ ~ ~ Y T P L k k k d.R.P.4 o   ",
"    2 C.I.B.z k k k H Y T ~ ~ ^ ( l 9 /.%X&X&X&X&X&X&X&X#X.X.X.X.X.XXXXXXXoXoXoX+X#X#X].a ^ ^ ^ ^ ~ ~ T Y P G k k k J.R.C.2     ",
"    X r I.C.A k d d H Y ~ ~ ~ ^ ^ P 8 _.&X&X&X&X&X&X&X&X&X&X&X&X&X%X&X&X%X&X&X&X&X&X%X.Xx ( ( ^ ^ ~ ~ E J P G k k h I.I.b.X     ",
"    . 0 P.P.;.k k d G Y W ~ ^ ( ( H 7 /.#X&X&X&X&X&X&X&X&X&X&X&X&X&X&X&X&X&X&X&X&X&X&XOXc ( ^ ^ ^ ^ ^ ~ Y H d k k 2.I.U.0 .     ",
"    X 2 C.I.n.h d G H T ~ ^ ^ ^ ( Y 7 /.#X&X&X&X&X&X&X&X&X&X&X&X&X&X&X&X&X&X&X&X&X&X&XOXv ( ( ( ( ^ ^ ~ K Y d d k F.I.C.3 X     ",
"      o r P.C.:.d G H T ~ ^ ^ ( ^ T 1 W.%X&X&X&X&X&X&X&X&X&X&X&X&X&X&X&X&X&X&X&X&X&X&XOXn ( ( ( ^ ^ ^ ~ K H G d B U.U.r o       ",
"      X 5 A.A.7.d G H J Q ^ ( ( ( W 1 W.+X&X&X&X&X&X&X&X&X&X&X&X&X&X&X&X&X&X&X&X&X&X&XOX%.( ( ( ( ( ^ W T H G d d.U.A.5 .       ",
"        o b.P.m.A H J K W ^ ( ( ( ^ , R.+X&X&X&X&X&X&X&X&X&X&X&X&X&X&X&X&X&X&X&X&X&X&XoX*.^ ( ( ( ( ^ W K H H V U.A.b.o         ",
"        . 5 C.A.7.P J W W Q ( ( ( ! * R.+X&X&X&X&X&X&X&X&X&X&X&X&X&X&X&X&X&X&X&X&X&X%XoX-.W ( ( ( ^ Q ^ K J H s.P.A.0 X         ",
"          o b.A.C.<.J W W Q ! ( ( ( : U.|.#X#X#X@X#X#X@X@X#X@X#X@X#X+X$X+XOX{.`.~.Q.K.S.< ^ ( ( ( ( ^ W K K  .U.A.v.o           ",
"          X 4 m.Z.n.` W W Q ! ( ( ( f - v n &.&.&.&.n &.b b b b c x x p p u u s j k d H J ( ( ( ( ! Q W ~ R H.A.m.5 X           ",
"            o q C.C.9.E W Q Q ! ( ( ( ( ( ( ( ( ( ( ( ( ( ( ( ( ( ( ( ( ( ( ( ( ( ( ( ( ( ( ( ( ! ! Q W ~ s.A.V.e X             ",
"            X 2 r V.C.6.W Q Q ! ! ! ( ( ( ( ( ( ( ( ( ( ( ( ( ( ( ( ( ( ( ( ( ( ( ( ( ( ( ( ( ! ! Q Q Q c.A.C.7.2 X             ",
"              X 4 b.C.m.w.Q Q ! ! ! ( ( ( ( ( ( ( ( ( ( ( ( ( ( ( ( ( ( ( ( ( ( ( ( ( ( ( ( ( ! Q Q Q k.P.m.b.4 X               ",
"                X 5 b.m.m.w.Q Q ! ! ! ! ( ( ( ( ( ( ( ( ( ( ( ( ( ( ( ( ( ( ( ( ( ( ( ( ( ! ! Q Q Q k.A.m.n.5 X                 ",
"                  X 0 b.m.m.6.~ Q Q ! ! ( ( ( ( ( ( ( ( ( ( ( ( ( ( ( ( ( ( ( ( ( ( ( ( ! ! Q Q Q y.A.m.b.0 o                   ",
"                    o 0 v.b.m.9.{ ! Q Q ! ! ( ( ( ( ( ( ( ( ( ( ( ( ( ( ( ( ( ( ( ( ( ( ! Q ! ~ s.Z.b.b.0 o                     ",
"                      o 5 t b.b.b.2.Q ! ! ! ! ! ( ( ( ( ( ( ( ( ( ( ( ( ( ( ( ! ! ! ! ! ! Q g.Z.m.b.r 5 X                       ",
"                        . 4 e v.b.b.9. .Q ! Q ! ( ( ( ( ( ( ( ( ( ( ( ( ( ( ( ! ! Q ! ! } s.C.b.b.e 3 X                         ",
"                          X 2 0 r r b.b.0.g.^ Q Q ! ! ! ( ( ( ( ( ( ( ! ! ! ! Q Q ^ ..u.C.b.b.r 0 2 X                           ",
"                            X X 3 q e r r b.n.e...~ ! ! Q Q ! Q ! ! Q ! ! Q ^ { 3.D.V.b.r r q 3 X X                             ",
"                                . o 4 q e r r r v.n.8.1.>.O.' { } { O.f.3.u.M.m.b.r r e q 4 o .                                 ",
"                                    . o 3 0 q e t t t r r 7.b.b.n.b.b.r r r t e e q 0 3 o .                                     ",
"                                        . X 2 4 5 q q q e e e e e e e e q q q 5 4 2 X .                                         ",
"                                            . . X o 2 3 4 5 5 5 5 5 4 4 3 2 o X . X                                             ",
"                                                    . X . . X X X X . . X X                                                     ",
"                                                                                                                                "
};
