/* XPM */
static char *eddac48b87624a4cdff32cf044192ac5OZH7VNqT69S7sZPH[] = {
/* columns rows colors chars-per-pixel */
"64 64 236 2 ",
"   c None",
".  c #AC2B00",
"X  c #BA2E00",
"o  c #BA3600",
"O  c #C23300",
"+  c #CB3700",
"@  c #C53C00",
"#  c #CD3C00",
"$  c #D43D00",
"%  c #D83F00",
"&  c #AD4700",
"*  c #BA5A00",
"=  c #BA5402",
"-  c #BE4500",
";  c #BF6202",
":  c #BF6A11",
">  c #BD7530",
",  c #CB4200",
"<  c #C54C00",
"1  c #CD4A01",
"2  c #C74504",
"3  c #D54400",
"4  c #DA4400",
"5  c #D44A00",
"6  c #DB4C00",
"7  c #CA5302",
"8  c #C25C01",
"9  c #CA5C00",
"0  c #CE5B0B",
"q  c #D55301",
"w  c #DD5300",
"e  c #DE5B01",
"r  c #D65607",
"t  c #E24D00",
"y  c #E35300",
"u  c #E95602",
"i  c #E35B00",
"p  c #EA5A01",
"a  c #E45C09",
"s  c #E05B13",
"d  c #C56302",
"f  c #CD6401",
"g  c #C86B07",
"h  c #D56602",
"j  c #DC6400",
"k  c #D26A03",
"l  c #DA6B04",
"z  c #D6690B",
"x  c #D67301",
"c  c #DB7503",
"v  c #DC7A06",
"b  c #DC7A0A",
"n  c #D57609",
"m  c #CA6B1B",
"M  c #D66814",
"N  c #DB7C13",
"B  c #D97616",
"V  c #CB7318",
"C  c #E56400",
"Z  c #EA6400",
"A  c #E66B00",
"S  c #EA6C01",
"D  c #E46A0B",
"F  c #EE6A0B",
"G  c #E6620A",
"H  c #F06E00",
"J  c #E37101",
"K  c #EC7300",
"L  c #E47C04",
"P  c #ED7A01",
"I  c #E5730C",
"U  c #E97309",
"Y  c #EC7B0B",
"T  c #E67A0E",
"R  c #F17500",
"E  c #F27C01",
"W  c #F1750C",
"Q  c #E36D14",
"!  c #E86A19",
"~  c #EA7C1B",
"^  c #E57715",
"/  c #F37C18",
"(  c #CC7627",
")  c #D87A27",
"_  c #D67A31",
"`  c #E87828",
"'  c #E5772C",
"]  c #DD8218",
"[  c #EE8301",
"{  c #ED830C",
"}  c #EA870B",
"|  c #F38300",
" . c #F58B01",
".. c #F38B0B",
"X. c #F69401",
"o. c #F99400",
"O. c #F69D02",
"+. c #F99C00",
"@. c #F8970A",
"#. c #E48019",
"$. c #EB821B",
"%. c #E48A1E",
"&. c #EE8C1D",
"*. c #EC8815",
"=. c #F38917",
"-. c #EF9118",
";. c #F59414",
":. c #F89514",
">. c #F4971C",
",. c #FBA605",
"<. c #F7A61C",
"1. c #D98427",
"2. c #C8833A",
"3. c #D98637",
"4. c #E68D23",
"5. c #E38A2C",
"6. c #EA8927",
"7. c #F38A2C",
"8. c #EC9624",
"9. c #EC972A",
"0. c #F39B22",
"q. c #F39B2D",
"w. c #F39426",
"e. c #E88A36",
"r. c #EB923A",
"t. c #ED9936",
"y. c #F39B3A",
"u. c #F4983A",
"i. c #F48E37",
"p. c #F3A32D",
"a. c #F8A72A",
"s. c #FBB32B",
"d. c #F6A937",
"f. c #F8B338",
"g. c #BE906C",
"h. c #C88A48",
"j. c #DA8C41",
"k. c #DD944B",
"l. c #DA9645",
"z. c #D48E53",
"x. c #CD925A",
"c. c #DB9956",
"v. c #E88C45",
"b. c #E39849",
"n. c #F39B43",
"m. c #F59A44",
"M. c #E69754",
"N. c #F08F45",
"B. c #DDA65B",
"V. c #F6A847",
"C. c #FBB848",
"Z. c #EAA75B",
"A. c #F4A758",
"S. c #F3B35E",
"D. c #CA9768",
"F. c #D69C66",
"G. c #CD9C72",
"H. c #E59F62",
"J. c #CBA279",
"K. c #D9A977",
"L. c #DBAB73",
"P. c #E5A666",
"I. c #E7AD76",
"U. c #E7B179",
"Y. c #F1B867",
"T. c #FAC96B",
"R. c #CCA789",
"E. c #D3AB85",
"W. c #DAAE85",
"Q. c #D9B48B",
"!. c #D6B697",
"~. c #CBB39A",
"^. c #E7B885",
"/. c #E2BC9D",
"(. c #D5BDA6",
"). c #C7BDB0",
"_. c #F8C689",
"`. c #E4C299",
"'. c #F7D396",
"]. c #DEC4A4",
"[. c #D7C4AD",
"{. c #CEC2B7",
"}. c #CAC3B8",
"|. c #DCC6B3",
" X c #DCCBBC",
".X c #D6C7B7",
"XX c #E5C8A7",
"oX c #F1CEAC",
"OX c #E3CAB2",
"+X c #E8D4BC",
"@X c #F0D6AE",
"#X c #FAE0B0",
"$X c #D5CDC7",
"%X c #DED1C3",
"&X c #D6D2CD",
"*X c #DCD3CA",
"=X c #D5D5D5",
"-X c #DCDDDD",
";X c #D7D7D7",
":X c #CBC5C0",
">X c #E4D4C4",
",X c #E7D8C8",
"<X c #E4DBD4",
"1X c #EADED3",
"2X c #E1DDDA",
"3X c #E1D7D0",
"4X c #E9D4C1",
"5X c #F4E6C8",
"6X c #ECE5DD",
"7X c #E8E2DA",
"8X c #F3E8D8",
"9X c #FAF0DD",
"0X c #DDDEE2",
"qX c #DAE0E6",
"wX c #E4E4E4",
"eX c #E9E6E4",
"rX c #ECE9E5",
"tX c #E3E5E9",
"yX c #E7E9EB",
"uX c #EBEBEB",
"iX c #F4ECE4",
"pX c #F2EEEA",
"aX c #F1E7E0",
"sX c #F3F1EE",
"dX c #FAF4ED",
"fX c #F8F1E6",
"gX c #EDEFF1",
"hX c #E7EBF1",
"jX c #EFF1F3",
"kX c #F4F4F4",
"lX c #F8F6F6",
"zX c #F6F7F8",
"xX c #FDFDFD",
"cX c #FEFEFE",
"vX c #FAFAFA",
"bX c #F9F8F7",
/* pixels */
"                                                                                                                                ",
"                                                                                                                                ",
"                                                                                                                                ",
"                                                                                                                                ",
"                                                                                                                                ",
"                                                                                                                                ",
"                                                                                                                                ",
"                                                                                                                                ",
"                                                        rXtXuXrXuXuXuX                                                          ",
"                                                tXrXtXuXtXuXuXuXuXuXuXuXgXuXpX                                                  ",
"                                          wXwXwXuXuXuXrXuXrXuXuXuXuXuXkXgXgXgXgXkXgXkXkXkXkX                                    ",
"                                      wXwXwXwXuXuXuXuXuXyXyXuXuXuXuXuXkXkXpXkXkXpXkXjXkXkXkXkXkXkX                              ",
"                                    eXwXwXwXwXwXuXuXjXuXuXuXgXuXgXkXyXwXjXkXkXkXkXkXkXkXkXkXkXkXkXkXkXkX                        ",
"                            tXwX0XwXwXwXyXwXwXuXtX2X-XuXgXtXtXuXgXuX`.P.8XvXkXkXkXkXzXkXkXuXuXuXgXvXkXvXzX                      ",
"                        ,XeXwXwX0XwXwXeXwXwXyXyX<XY.Z.+XpX+XE.+XkXrXP.7.,XgXtXkXkXkXzXuXyXyXpXkXkXlXvXvXvX                      ",
"                      +XiXtXwXwXwXwXwXyXwXwXwXhX+Xr.~ L.%XL.B F.rX<XH.v.XXXXI.aXkXkXyXuXkXkXkXvXvXbXvXvXvXxX                    ",
"                  @XrXjXyXwXqXwX7XqXwXwXwXeXwXgX2Xb.U 5.K.v.^ j.2X3XH.M.I.P.3.,XkXuXgXkXbXvXvXvXvXvXvXvXvXvXfX                  ",
"                Z.6XsXuXwX0X7XqXwXwXwXwXwXyXyXyX0XE.B ^ 5.1.^ ) ;X*XF.c.I.M.) %XeXgXlXlXvXvXvXvXvXvXvXvXvXvXxX#X                ",
"              } `.hXsXrX7X7XqX7XwXwXwXwXwXrXeXyX-X$Xz.z 4.1.N ) -X|.z.k.P.l.( &XqX-XuXvXbXvXvXvXxXxXxXxXxXvXxXdXC.              ",
"            L %.[.yXgXyXqX0XwX0XwXwXwXwXwXwXyXwX0X=XW.V z B k ( ;X(._ 3.k.3.1.}.}.7XuXvXvXvXvXvXxXxXxXxXxXxXxXvX'.s.            ",
"          b L #.E..X*X;X;X2XwXwXwXwXwXwXyXyXyXwX=X=X).m f k 9 ( &X!.0 m 1.( V 2.G.tXkXvXvXvXvXxXxXxXxXxXxXxXxXvXxXT.<.          ",
"          v v c N 1.3.l.!.-X0XwXwXwXwXwXwXrXwXeX;X=X(.m 9 f 8 ( =XE.= * g : ; g E.wXvXkXkXvXvXxXxXxXxXxXxXxXvXvXxXdXT.,.        ",
"        v n l l j j J b.+XwXtXwXqXeXwXwXwXrXuXgXwX;X&X( 8 g 8 ( 0XR.= * ; ; ; V &XwXvXkXsXgXgXkXvXxXxXxXxXxXxXvXxXvXfXC.,.      ",
"      v v l l M B l.W.$X7XeXpXuXwXwXwXwXwXyXwXuXhXtX0XJ.8 8 ; h.0XR.= * * * * Q.jXjXlXvXkXkXsXgXpXkXvXxXxXxXvXvXvXvXxX5Xs.      ",
"      v n l B P.(.|.}.).:X=XpXkXwXwXwXwXwXwXwXuXuXgXuX7X!.D.D.}.;X}.> & > x.].kXvXlXkXvXvXvXvXkXkXgXsXlXvXvXvXvXlXvXvXvX'.O.    ",
"      v c 1.^.*X:XJ.2.2.1.F.wXkXuXwXwXwXeXeXuXwXuXuXuXjXgXeX=X-XqXqX|.|.6XuXkXkXkXzXvXkXvXkXvXvXvXkXuXgXvXvXbXvXvXvXvXvX9Xs.    ",
"    v x ] Q.-X{.2.g B ^ I e.<XkXwXwXwXwXwXyXyXwXwXuXyXuXgXuXuXuXgXpXkXkXjXkXkXkXkXkXkXlXkXvXlXvXlXvXkXjXkXlXzXlXlXkXkXvXdXS.    ",
"    v x l.7X X3.h ] &.&.~ M.2XuXeX-X7X0XyXwXwXrXuXyXyXuXuXuXuXuXtXjXgXjXkXkXkXkXkXkXkXkXvXkXkXvXlXvXlX5XXXeXfXiX8X`.<XdXbX_.    ",
"    x n Q.qXK.n ] >.p.-.#.J. X*X.XQ.W.3XrXwXuXgXsXgXuXwXuXuXuXqXwXjXgXgXkXjXkXkXkXkXkXkXlXkXzXkXlXvXiXC.8.].4X4X`.Y B.2XdX_.    ",
"    x V }..X1.b 8.p.>.} b g.D.D.2.#.Z.,XwX0XeXkXlXgXuXrXuXuXuX0XwXfXuXsXsXkXkXkXlXkXkXlXsXiXiXfXlXvXfXS.P j.J.K.e.! Q Q.fX'.    ",
"    k n h.2.l ] p.p.-.L j M r C R r./.3X].Q.&XsXlXsXyXyXuXgXsX7XwXuXrXwXuXkXkXkXbXlXbXsX,X].OX,XfXbXvX@X~ A B _ ) ' ' j.|.Z.    ",
"    k k k k b 8.p.8.} l C Z Z A ~ W.+X/.4.#.Q.sXlXgXuXuXgXlXlXuX6X=X XQ.%XpXkXvXbXvXlX8XP.3.k.E..XiXbXiXP.A A T e.v.' ! _ Q     ",
"    d f f k #.t.p.*.A j C C Z U M.|.*X5.K I K.6XkXsXuXpXsXkXkXkX+XB.b.4.Q.7XkXzXxXbXiXXX6.{ &.e.c.[.fXvXoX^ A $.y.Z.N.' a u     ",
"    * 9 9 k %.p.9.T j j C C C ` ^.,X].} K I Q.1XpXeXeXqXfXlXkXiX_.} &.*.F.%XpXzXhX2XOXP.w.9.8.r.r.c. XdXiXM.Z $.y.A.A.v.! a     ",
"      7 7 z 6.t.4.z q j C j A 3.!.8XU.I A I R.,X3X|.L.K. XrXkX6XP.} 8.8.j.!.eX@Xd.k.l.4.>.p.p.d.n.e.L.7XiXI.D $.y.A.S.N.` s     ",
"      - < z 5.r.^ r q e i C F _ !.*Xe.Z A D g.~.J.] P P x.(.1X+Xt.&.p.p.*.x.(.*.[  .} X.@.<.p.f.V.u.b.].8X^.^ W y.A.A.i.! r     ",
"      & < 0 ) e.M 5 q e e D K B G.J.D Z S C n B P K J Y 4.D.R.c.L 9.f.s.w.Y L K K  .O.,.O.O.<.a.C.n.r.c.|.U.Q F i.m.m.` s       ",
"        - 1 M M q 1 q e i D I C l l A P P A Z C A J Y &.9.&.^ A { p.f.f.0.{ P P [ O.O.O.+.,.@.<.d.A.m.N.G._ y F / 7.7.! 2       ",
"          < 7 1 1 1 6 w e D U A C Z K P E K S A F E =.q.t.&.P K ;.d.f.f.>...[ |  .X.O.+.+.+.o.@.a.f.m.i.W C w Z F F F a 2       ",
"          2 2 , # 1 5 w e D K K K K K R P R E P P | w.d.y.&.| | ;.C.C.f.>.[ [ [ |  .+.o.+.o.o.o.<.d.V.m./ Z y i u u a t         ",
"          o @ @ @ , 6 6 e G C A S K K K K R K R E =.q.d.i.{ | | ;.C.C.f.;.[ L P [ | X.X.o.o.o. .@.0.m.m.=.H y y u u t 4         ",
"            o O O # 3 6 e e Z C Z A S S S R K R E =.y.m.6.Y E | :.C.C.a.{ L K P P E X. . . . . . .:.w.7./ Z 6 4 u t 6           ",
"                . # 3 6 e i i C Z Z C Z S Z Z S R &.y.N.` W E E :.C.C.a.P K K K K P  . . . .| | E E / / ! u 4 3 #               ",
"                    5 w w e i i i i i Z Z Z Z A K &.u.e.^ S K E ..d.f.:.K A J A S K E | | E E R R H F F u 4 %                   ",
"                      q w e y i e i u i p i Z Z F $.i.7.Q A S R W a.0...H A A A A S R E R R R H H p u u 4 +                     ",
"                        5 w w 6 t y y i i i i i Z ^ 6.~ G Z S S R ..@.E A C C C A C Z H Z Z p p u u t % #                       ",
"                          1 6 w w y t y y y y t y a ! a e i Z Z H E | H i i e e i e i p u u t t t % + O                         ",
"                              5 6 6 t 6 6 t 6 4 4 4 6 6 5 w i i Z H R Z w w 6 w 6 6 y t t 4 % % + +                             ",
"                                  3 5 6 4 4 4 % $ $ $ 4 3 5 y y i p Z w 3 5 3 6 6 3 6 4 $ + + X .                               ",
"                                      , 3 3 % 4 % $ % 4 3 3 4 t y u y 3 3 # , # # # + O X .                                     ",
"                                                          @ % 4 4 4 3 $ o                                                       ",
"                                                                                                                                ",
"                                                                                                                                ",
"                                                                                                                                ",
"                                                                                                                                ",
"                                                                                                                                ",
"                                                                                                                                ",
"                                                                                                                                ",
"                                                                                                                                ",
"                                                                                                                                ",
"                                                                                                                                ",
"                                                                                                                                ",
"                                                                                                                                ",
"                                                                                                                                "
};
